<svg width="1793" height="847" viewBox="0 0 1793 847" fill="none" xmlns="http://www.w3.org/2000/svg">
<rect width="1793" height="847" fill="#FFFBFA"/>
<path d="M948.147 225.385L889.93 167.168C889.122 166.359 887.707 166.966 887.909 168.179L895.995 269.25C895.995 270.261 897.208 270.665 898.016 270.059L948.147 227.204C948.552 226.598 948.552 225.789 948.147 225.385Z" fill="#2B2929"/>
<path d="M1023.95 301.189L965.734 242.972C965.329 242.567 964.319 242.567 963.914 242.972L921.06 293.103C920.454 293.912 920.858 294.922 921.869 295.124L1022.94 303.21C1024.15 303.412 1024.76 301.997 1023.95 301.189Z" fill="#2B2929"/>
<path d="M810.488 398.42L868.705 456.637C869.514 457.445 870.929 456.839 870.727 455.626L862.641 354.555C862.641 353.544 861.428 353.14 860.62 353.746L810.488 396.6C810.084 397.005 809.882 397.813 810.488 398.42Z" fill="#2B2929"/>
<path d="M889.93 456.637L948.147 398.42C948.552 398.015 948.552 397.005 948.147 396.6L897.814 353.746C897.005 353.14 895.995 353.544 895.792 354.555L887.707 455.626C887.707 456.839 889.122 457.445 889.93 456.637Z" fill="#2B2929"/>
<path d="M868.705 167.168L810.488 225.385C810.084 225.79 810.084 226.8 810.488 227.205L860.619 269.857C861.428 270.463 862.439 270.059 862.641 269.048L870.727 167.977C870.727 166.966 869.514 166.36 868.705 167.168Z" fill="#2B2929"/>
<path d="M921.262 330.499L964.117 380.631C964.521 381.237 965.33 381.237 965.936 380.631L1023.95 322.414C1024.76 321.605 1024.15 320.19 1022.94 320.392L921.869 328.478C921.06 328.478 920.656 329.691 921.262 330.499Z" fill="#2B2929"/>
<path d="M734.482 322.414L792.7 380.631C793.104 381.035 794.115 381.035 794.519 380.631L837.373 330.499C837.98 329.691 837.575 328.68 836.564 328.478L735.493 320.392C734.28 320.392 733.674 321.605 734.482 322.414Z" fill="#2B2929"/>
<path d="M792.7 242.972L734.482 301.189C733.674 301.997 734.28 303.412 735.493 303.21L836.564 295.124C837.575 295.124 837.98 293.912 837.373 293.103L794.519 242.972C794.115 242.567 793.306 242.567 792.7 242.972Z" fill="#2B2929"/>
<path d="M540.83 528.195L518.392 540.323C517.988 540.525 517.786 540.93 517.786 541.536V677.376C517.786 678.185 518.392 678.589 518.998 678.589H540.83C541.638 678.589 542.043 677.982 542.043 677.376V529.408C542.245 528.195 541.638 527.588 540.83 528.195Z" fill="#2B2929"/>
<path d="M615.016 563.974C579.237 561.144 549.522 590.859 552.352 626.638C554.576 654.736 577.418 677.578 605.516 679.802C641.295 682.632 671.01 652.917 668.18 617.137C665.956 589.04 643.114 566.197 615.016 563.974ZM614.814 655.545C592.578 658.375 573.779 639.575 576.609 617.34C578.631 602.179 590.759 590.05 605.92 588.029C628.156 585.199 646.955 603.998 644.125 626.234C642.103 641.395 629.975 653.725 614.814 655.545Z" fill="#2B2929"/>
<path d="M764.198 572.262C758.133 568.421 752.473 565.591 744.792 564.378C711.438 559.122 679.096 583.38 676.468 617.137C673.84 651.3 701.533 680.004 735.089 680.004C748.228 680.004 757.325 675.557 764.198 671.514C764.602 671.312 764.804 670.907 764.804 670.301V645.64C764.804 644.427 763.591 643.82 762.581 644.629C756.921 649.278 748.633 655.14 737.111 655.747C719.322 656.757 703.555 643.618 701.331 626.032C698.703 605.413 714.875 587.625 735.089 587.625C748.835 587.625 756.718 593.689 762.581 598.742C763.389 599.551 764.804 598.945 764.804 597.732V573.272C764.804 572.868 764.602 572.464 764.198 572.262Z" fill="#2B2929"/>
<path d="M829.288 613.701L829.894 613.095L874.568 566.804C875.174 566.198 874.77 565.187 873.759 565.187H842.629C842.225 565.187 841.821 565.389 841.618 565.591L805.839 602.785V528.801C805.839 527.79 804.626 527.184 803.818 527.588L781.38 540.121C780.976 540.323 780.773 540.728 780.773 541.334V677.174C780.773 677.982 781.38 678.589 782.188 678.589H804.626C805.435 678.589 806.041 677.982 806.041 677.174V639.373C806.041 638.969 806.243 638.767 806.446 638.363L811.499 633.107C812.106 632.5 813.116 632.5 813.521 633.107L848.491 677.982C848.693 678.387 849.098 678.589 849.502 678.589H877.802C879.015 678.589 879.621 677.376 878.813 676.365L829.288 613.701Z" fill="#2B2929"/>
<path d="M933.391 610.871C912.975 601.775 911.56 600.158 910.145 597.934C908.73 595.711 908.73 593.689 909.336 591.668C910.549 588.029 916.007 584.188 922.273 584.997C931.37 586.21 937.838 591.263 940.062 593.487C940.668 593.891 941.477 594.093 942.083 593.689L958.255 582.571C958.861 582.167 959.063 581.358 958.457 580.752C952.595 574.081 940.062 563.772 920.858 563.772C910.347 563.772 899.431 567.613 892.558 574.283C886.494 580.146 883.058 587.827 883.058 595.508C883.058 610.265 891.143 618.755 922.678 632.096C929.955 635.128 934.806 638.767 936.019 643.416C938.243 652.108 928.742 658.173 918.635 656.758C916.007 656.353 906.708 656.555 898.623 643.618C898.218 643.012 897.41 642.608 896.601 643.012L876.993 653.321C876.185 653.725 875.983 654.534 876.387 655.141C889.324 676.77 907.517 680.004 919.848 680.004C961.287 680.004 964.117 647.863 960.478 636.341C956.84 623.808 947.946 617.34 933.391 610.871Z" fill="#2B2929"/>
<path d="M1251.77 610.871C1231.35 601.775 1229.93 600.158 1228.52 597.934C1227.1 595.711 1227.1 593.689 1227.71 591.668C1228.92 588.029 1234.38 584.188 1240.65 584.997C1249.74 586.21 1256.21 591.263 1258.44 593.487C1259.04 593.891 1259.85 594.093 1260.46 593.689L1276.63 582.571C1277.24 582.167 1277.44 581.358 1276.83 580.752C1270.97 574.081 1258.44 563.772 1239.23 563.772C1228.72 563.772 1217.81 567.613 1210.93 574.283C1204.87 580.146 1201.43 587.827 1201.43 595.508C1201.43 610.265 1209.52 618.755 1241.05 632.096C1248.33 635.128 1253.18 638.767 1254.39 643.416C1256.62 652.108 1247.12 658.173 1237.01 656.758C1234.38 656.353 1225.08 656.555 1217 643.618C1216.59 643.012 1215.78 642.608 1214.98 643.012L1195.37 653.321C1194.56 653.725 1194.36 654.534 1194.76 655.141C1207.7 676.77 1225.89 680.004 1238.22 680.004C1279.66 680.004 1282.49 647.863 1278.85 636.341C1275.21 623.808 1266.32 617.34 1251.77 610.871Z" fill="#2B2929"/>
<path d="M1025.57 563.772C991.406 563.772 966.34 591.87 970.383 629.266C973.415 657.97 997.47 680.813 1026.38 679.802C1043.96 679.195 1061.15 670.705 1071.86 656.758C1072.47 656.151 1072.06 655.14 1071.25 654.736L1051.04 645.235C1050.43 645.033 1049.83 645.033 1049.42 645.64C1047.2 648.065 1039.52 655.747 1024.15 655.747C1009.4 655.747 998.885 646.246 996.46 632.096H1076.91C1077.72 632.096 1078.33 631.49 1078.33 630.681L1078.53 621.181C1078.53 587.827 1054.47 563.772 1025.57 563.772ZM996.257 610.265C1000.3 597.328 1011.01 587.221 1025.16 587.221C1039.31 587.221 1049.62 595.913 1052.86 610.265H996.257Z" fill="#2B2929"/>
<path d="M1343.54 563.772C1309.38 563.772 1284.31 591.87 1288.35 629.266C1291.39 657.97 1315.44 680.813 1344.35 679.802C1361.93 679.195 1379.12 670.705 1389.83 656.758C1390.44 656.151 1390.03 655.14 1389.22 654.736L1369.01 645.235C1368.4 645.033 1367.8 645.033 1367.39 645.64C1365.17 648.065 1357.49 655.747 1342.12 655.747C1327.37 655.747 1316.86 646.246 1314.43 632.096H1394.88C1395.69 632.096 1396.3 631.49 1396.3 630.681L1396.5 621.181C1396.5 587.827 1372.24 563.772 1343.54 563.772ZM1314.03 610.265C1318.07 597.328 1328.78 587.221 1342.93 587.221C1357.08 587.221 1367.39 595.913 1370.63 610.265H1314.03Z" fill="#2B2929"/>
<path d="M453.504 563.772C442.184 563.772 432.077 567.209 420.959 575.901V529.408C420.959 528.397 419.746 527.791 418.938 528.195L397.106 540.324C396.702 540.526 396.5 540.93 396.5 541.536V677.376C396.5 678.185 397.106 678.791 397.915 678.791H419.746C420.555 678.791 421.161 678.185 421.161 677.376V668.078C429.651 674.951 441.78 680.206 453.706 680.206C484.836 680.206 508.689 655.545 508.689 622.191C508.487 588.231 484.634 563.772 453.504 563.772ZM453.504 656.151C449.057 656.151 444.61 655.343 440.567 653.523C428.439 648.066 421.566 634.522 421.566 621.787C421.566 600.966 435.109 590.253 447.844 588.029C448.249 588.029 448.653 587.827 449.057 587.827C449.259 587.827 449.259 587.827 449.461 587.827C449.866 587.827 450.472 587.827 450.876 587.625C451.079 587.625 451.281 587.625 451.483 587.625H451.685C452.089 587.625 452.494 587.625 452.898 587.625C453.1 587.625 453.302 587.625 453.302 587.625C474.123 587.625 483.219 605.414 483.219 621.989C483.421 645.438 468.059 656.151 453.504 656.151Z" fill="#2B2929"/>
<path d="M1173.33 573.272C1180.41 579.741 1183.85 589.242 1183.85 601.977V677.376C1183.85 677.982 1183.24 678.589 1182.63 678.589H1159.59C1158.98 678.589 1158.38 677.982 1158.38 677.376V609.86C1158.38 598.338 1156.76 593.891 1153.52 590.455C1150.29 587.018 1145.64 585.401 1139.78 585.401C1133.11 585.401 1126.44 587.422 1122.6 591.263C1118.55 595.104 1114.92 601.168 1114.92 612.69V677.376C1114.92 677.982 1114.31 678.589 1113.7 678.589H1091.06C1090.46 678.589 1089.85 677.982 1089.85 677.376V566.4C1089.85 565.793 1090.46 565.187 1091.06 565.187H1114.11C1114.71 565.187 1115.32 565.793 1115.32 566.4V575.092C1118.76 571.453 1123.2 568.623 1128.46 566.602C1133.71 564.58 1139.37 563.57 1145.64 563.57C1157.16 563.57 1166.26 566.804 1173.33 573.272Z" fill="#2B2929"/>
</svg>
