<svg width="514" height="514" viewBox="0 0 514 514" fill="none" xmlns="http://www.w3.org/2000/svg">
<circle cx="257" cy="257" r="257" fill="#1F1F1F"/>
<path d="M235.044 305.163C235.979 304.462 237.381 304.93 237.381 306.099L246.731 422.962C246.965 424.364 245.328 425.066 244.393 424.131L177.079 356.817C176.612 356.116 176.612 355.181 177.079 354.714L235.044 305.163ZM275.947 306.099C276.18 304.93 277.35 304.462 278.285 305.163L336.248 354.714C336.716 355.181 336.716 356.35 336.248 356.817L268.935 424.131C268 425.065 266.598 424.364 266.598 422.962L275.947 306.099ZM422.961 266.598C424.363 266.364 425.064 268.001 424.129 268.935L356.816 336.249C356.115 336.95 355.18 336.95 354.712 336.249L305.162 278.284C304.461 277.349 305.162 275.947 306.097 275.947L422.961 266.598ZM207.231 275.947C208.399 276.181 208.866 277.349 208.165 278.284L158.849 336.249C158.381 336.716 157.213 336.716 156.745 336.249L89.432 268.935C88.4973 268.001 89.199 266.599 90.3675 266.599L207.231 275.947ZM354.712 177.081C355.18 176.614 356.348 176.614 356.816 177.081L424.129 244.394C425.064 245.329 424.363 246.965 422.96 246.965L306.097 237.616C304.928 237.382 304.461 236.214 305.162 235.279L354.712 177.081ZM156.746 177.081C157.214 176.614 158.149 176.613 158.85 177.314L208.4 235.045C209.101 235.98 208.634 237.382 207.465 237.382L90.6009 246.731C89.1988 246.965 88.4982 245.329 89.4329 244.394L156.746 177.081ZM266.597 90.6015C266.363 89.1991 268 88.4976 268.935 89.4325L336.248 156.746C336.949 157.213 336.716 158.148 336.248 158.85L278.284 208.4C277.349 209.101 275.947 208.633 275.947 207.465L266.597 90.6015ZM244.393 89.4325C245.328 88.4977 246.964 89.1995 246.964 90.3681L237.615 207.231C237.381 208.4 236.213 208.867 235.278 208.166L177.079 158.85C176.612 158.382 176.612 157.213 177.079 156.746L244.393 89.4325Z" fill="#EEFF00"/>
</svg>
