<svg width="96" height="96" viewBox="0 0 96 96" fill="none" xmlns="http://www.w3.org/2000/svg">
<g id="Group 3">
<g id="Group">
<path id="Vector" d="M70.7362 19.3812L51.4784 0.123405C51.2109 -0.144065 50.7428 0.0565371 50.8097 0.457742L53.4844 33.8915C53.4844 34.2258 53.8856 34.3596 54.1531 34.159L70.7362 19.9831C70.8699 19.7825 70.9368 19.515 70.7362 19.3812Z" fill="#EEFF00"/>
<path id="Vector_2" d="M95.8783 44.4572L76.6205 25.1994C76.4868 25.0657 76.1524 25.0657 76.0187 25.1994L61.8428 41.8494C61.6422 42.1169 61.7759 42.4512 62.1103 42.5181L95.544 45.1928C95.9452 45.1928 96.1458 44.7247 95.8783 44.4572Z" fill="#EEFF00"/>
<path id="Vector_3" d="M25.1992 76.6205L44.457 95.8784C44.7245 96.1458 45.1926 95.9452 45.1257 95.544L42.451 62.1103C42.451 61.776 42.0498 61.6422 41.7823 61.8428L25.1992 76.0187C25.0654 76.1525 25.0654 76.4199 25.1992 76.6205Z" fill="#EEFF00"/>
<path id="Vector_4" d="M51.4782 95.8784L70.736 76.6205C70.8698 76.4868 70.8698 76.1525 70.736 76.0187L54.1529 61.8428C53.8854 61.6422 53.5511 61.776 53.4842 62.1103L50.8095 95.544C50.8095 95.9452 51.2107 96.1458 51.4782 95.8784Z" fill="#EEFF00"/>
<path id="Vector_5" d="M44.457 0.123944L25.1992 19.3818C25.0654 19.5155 25.0654 19.8499 25.1992 19.9836L41.8492 34.0926C42.1167 34.2932 42.451 34.1595 42.5179 33.8252L45.1926 0.391414C45.1926 0.0570769 44.7245 -0.143526 44.457 0.123944Z" fill="#EEFF00"/>
<path id="Vector_6" d="M61.8426 54.1528L76.0185 70.7359C76.1522 70.9365 76.4197 70.9365 76.6203 70.7359L95.8782 51.4781C96.1456 51.2106 95.945 50.7425 95.5438 50.8094L62.1101 53.4841C61.8426 53.4841 61.642 53.8853 61.8426 54.1528Z" fill="#EEFF00"/>
<path id="Vector_7" d="M0.123944 51.4781L19.3818 70.7359C19.5155 70.8696 19.8499 70.8696 19.9836 70.7359L34.0926 54.1528C34.2932 53.8853 34.1595 53.551 33.8252 53.4841L0.391414 50.8094C0.0570769 50.8094 -0.143526 51.2106 0.123944 51.4781Z" fill="#EEFF00"/>
<path id="Vector_8" d="M19.382 25.1994L0.124168 44.4572C-0.143302 44.7247 0.0573 45.1928 0.458505 45.1259L33.8923 42.4512C34.2266 42.4512 34.3603 42.05 34.1597 41.7825L19.9838 25.2663C19.7832 25.0657 19.5157 25.0657 19.382 25.1994Z" fill="#EEFF00"/>
</g>
</g>
</svg>
