<svg width="46" height="46" viewBox="0 0 46 46" fill="none" xmlns="http://www.w3.org/2000/svg">
<rect width="46" height="46" rx="8" fill="#F4F3F3"/>
<path d="M24.2996 28.236L16.4569 29.6477L17.764 21.7005L32.7435 6.77328C32.9865 6.52826 33.2757 6.33377 33.5942 6.20105C33.9128 6.06833 34.2545 6 34.5996 6C34.9447 6 35.2864 6.06833 35.605 6.20105C35.9235 6.33377 36.2127 6.52826 36.4557 6.77328L39.2268 9.54435C39.4718 9.78738 39.6663 10.0765 39.799 10.3951C39.9317 10.7136 40 11.0553 40 11.4004C40 11.7456 39.9317 12.0873 39.799 12.4058C39.6663 12.7244 39.4718 13.0135 39.2268 13.2565L24.2996 28.236Z" stroke="#1F1F1F" stroke-width="2" stroke-linecap="round" stroke-linejoin="round"/>
<path d="M36.0635 29.5434V37.3861C36.0635 38.0794 35.7881 38.7443 35.2978 39.2346C34.8076 39.7249 34.1426 40.0003 33.4493 40.0003H8.61422C7.92089 40.0003 7.25595 39.7249 6.76569 39.2346C6.27543 38.7443 6 38.0794 6 37.3861V12.551C6 11.8577 6.27543 11.1927 6.76569 10.7025C7.25595 10.2122 7.92089 9.93677 8.61422 9.93677H16.4569" stroke="#1F1F1F" stroke-width="2" stroke-linecap="round" stroke-linejoin="round"/>
</svg>
