<svg width="514" height="514" viewBox="0 0 514 514" fill="none" xmlns="http://www.w3.org/2000/svg">
<circle cx="257" cy="257" r="257" fill="#1F1F1F"/>
<path d="M235.045 305.163C235.98 304.463 237.382 304.931 237.382 306.099L246.732 422.962C246.965 424.365 245.329 425.066 244.394 424.131L177.08 356.818C176.613 356.117 176.613 355.182 177.08 354.714L235.045 305.163ZM275.948 306.099C276.181 304.93 277.351 304.462 278.285 305.163L336.249 354.714C336.717 355.182 336.717 356.35 336.249 356.818L268.936 424.131C268.001 425.066 266.599 424.365 266.599 422.962L275.948 306.099ZM422.962 266.598C424.364 266.365 425.065 268.001 424.13 268.936L356.817 336.249C356.116 336.95 355.181 336.95 354.713 336.249L305.163 278.285C304.462 277.35 305.163 275.948 306.098 275.948L422.962 266.598ZM207.232 275.948C208.4 276.181 208.867 277.35 208.166 278.285L158.85 336.249C158.382 336.717 157.214 336.717 156.746 336.249L89.4329 268.936C88.4983 268.001 89.1999 266.599 90.3685 266.599L207.232 275.948ZM354.713 177.081C355.181 176.614 356.349 176.614 356.817 177.081L424.13 244.395C425.065 245.33 424.364 246.965 422.961 246.965L306.098 237.617C304.929 237.383 304.462 236.215 305.163 235.28L354.713 177.081ZM156.747 177.081C157.215 176.614 158.15 176.614 158.851 177.315L208.401 235.045C209.102 235.98 208.635 237.382 207.466 237.382L90.6019 246.732C89.1997 246.965 88.4991 245.33 89.4339 244.395L156.747 177.081ZM266.598 90.602C266.364 89.1996 268.001 88.4981 268.936 89.433L336.249 156.746C336.95 157.214 336.717 158.149 336.249 158.85L278.285 208.401C277.35 209.102 275.948 208.634 275.948 207.465L266.598 90.602ZM244.394 89.433C245.329 88.4982 246.965 89.2 246.965 90.3686L237.616 207.232C237.382 208.4 236.214 208.868 235.279 208.166L177.08 158.85C176.613 158.382 176.613 157.214 177.08 156.746L244.394 89.433Z" fill="#FFFBFA"/>
</svg>
