<svg width="514" height="514" viewBox="0 0 514 514" fill="none" xmlns="http://www.w3.org/2000/svg">
<circle cx="257" cy="257" r="257" fill="#EEFF00"/>
<path d="M235.045 305.164C235.98 304.463 237.382 304.93 237.382 306.099L246.732 422.963C246.965 424.365 245.33 425.066 244.395 424.131L177.081 356.817C176.614 356.116 176.614 355.181 177.081 354.714L235.045 305.164ZM275.948 306.099C276.182 304.93 277.35 304.463 278.285 305.164L336.249 354.714C336.717 355.181 336.717 356.35 336.249 356.817L268.936 424.131C268.001 425.066 266.599 424.365 266.599 422.963L275.948 306.099ZM422.962 266.599C424.364 266.365 425.066 268.001 424.131 268.936L356.818 336.249C356.116 336.95 355.182 336.95 354.714 336.249L305.163 278.285C304.462 277.35 305.164 275.947 306.099 275.947L422.962 266.599ZM207.232 275.948C208.4 276.182 208.868 277.35 208.167 278.285L158.851 336.249C158.383 336.717 157.215 336.717 156.747 336.249L89.4338 268.936C88.4989 268.001 89.1997 266.599 90.3683 266.599L207.232 275.948ZM354.713 177.081C355.18 176.614 356.349 176.614 356.817 177.081L424.13 244.395C425.065 245.329 424.364 246.966 422.962 246.966L306.098 237.616C304.929 237.382 304.462 236.214 305.163 235.279L354.713 177.081ZM156.747 177.081C157.215 176.614 158.15 176.613 158.851 177.315L208.401 235.045C209.102 235.98 208.635 237.383 207.466 237.383L90.6027 246.732C89.2004 246.965 88.4989 245.33 89.4338 244.395L156.747 177.081ZM266.599 90.6016C266.365 89.1995 268.001 88.4988 268.936 89.4337L336.249 156.747C336.95 157.215 336.717 158.15 336.249 158.851L278.285 208.4C277.35 209.102 275.948 208.634 275.947 207.466L266.599 90.6016ZM244.395 89.4337C245.33 88.499 246.965 89.1997 246.965 90.3683L237.616 207.233C237.382 208.401 236.213 208.868 235.278 208.167L177.081 158.851C176.614 158.383 176.614 157.215 177.081 156.747L244.395 89.4337Z" fill="#1F1F1F"/>
</svg>
