<svg width="600" height="600" viewBox="0 0 600 600" fill="none" xmlns="http://www.w3.org/2000/svg">
<rect width="600" height="600" fill="#1F1F1F"/>
<path d="M278.267 348.385C279.201 347.684 280.603 348.151 280.603 349.32L289.953 466.184C290.186 467.586 288.551 468.287 287.616 467.352L220.303 400.039C219.835 399.337 219.835 398.403 220.303 397.935L278.267 348.385ZM319.17 349.32C319.404 348.151 320.572 347.684 321.507 348.385L379.471 397.935C379.938 398.403 379.938 399.571 379.471 400.039L312.157 467.352C311.222 468.287 309.821 467.586 309.82 466.184L319.17 349.32ZM466.184 309.82C467.586 309.586 468.287 311.222 467.352 312.157L400.039 379.47C399.338 380.171 398.403 380.171 397.935 379.47L348.385 321.506C347.684 320.572 348.385 319.169 349.32 319.169L466.184 309.82ZM250.453 319.17C251.622 319.403 252.09 320.572 251.389 321.506L202.072 379.47C201.605 379.938 200.436 379.938 199.969 379.47L132.655 312.157C131.72 311.222 132.421 309.82 133.59 309.82L250.453 319.17ZM397.934 220.302C398.402 219.835 399.57 219.835 400.038 220.302L467.351 287.616C468.286 288.551 467.586 290.187 466.184 290.187L349.319 280.837C348.151 280.604 347.684 279.435 348.385 278.501L397.934 220.302ZM199.969 220.302C200.436 219.835 201.371 219.835 202.072 220.536L251.622 278.266C252.323 279.201 251.856 280.604 250.687 280.604L133.824 289.953C132.422 290.186 131.72 288.551 132.655 287.616L199.969 220.302ZM309.82 133.823C309.587 132.421 311.222 131.72 312.157 132.655L379.471 199.968C380.172 200.436 379.938 201.371 379.471 202.072L321.507 251.622C320.572 252.323 319.169 251.856 319.169 250.687L309.82 133.823ZM287.616 132.655C288.551 131.72 290.186 132.421 290.186 133.589L280.838 250.454C280.604 251.622 279.435 252.089 278.5 251.388L220.303 202.072C219.835 201.604 219.835 200.436 220.303 199.968L287.616 132.655Z" fill="#FFFBFA"/>
</svg>
