<svg width="600" height="600" viewBox="0 0 600 600" fill="none" xmlns="http://www.w3.org/2000/svg">
<rect width="600" height="600" fill="#FFFBFA"/>
<path d="M278.267 348.385C279.202 347.684 280.604 348.152 280.604 349.321L289.954 466.184C290.188 467.586 288.551 468.288 287.616 467.353L220.303 400.039C219.835 399.338 219.835 398.403 220.303 397.936L278.267 348.385ZM319.17 349.321C319.403 348.152 320.573 347.684 321.508 348.385L379.472 397.936C379.939 398.403 379.939 399.572 379.472 400.039L312.158 467.353C311.223 468.288 309.821 467.586 309.821 466.184L319.17 349.321ZM466.184 309.82C467.586 309.586 468.287 311.223 467.352 312.158L400.039 379.471C399.338 380.172 398.403 380.172 397.935 379.471L348.386 321.506C347.685 320.571 348.385 319.17 349.32 319.169L466.184 309.82ZM250.454 319.169C251.623 319.403 252.09 320.571 251.389 321.506L202.072 379.471C201.605 379.938 200.436 379.939 199.969 379.471L132.655 312.158C131.72 311.223 132.422 309.821 133.591 309.821L250.454 319.169ZM397.935 220.303C398.403 219.836 399.571 219.836 400.039 220.303L467.352 287.617C468.287 288.552 467.586 290.187 466.183 290.187L349.32 280.838C348.152 280.605 347.684 279.436 348.386 278.501L397.935 220.303ZM199.97 220.303C200.437 219.836 201.372 219.835 202.073 220.537L251.623 278.267C252.324 279.202 251.857 280.604 250.688 280.604L133.824 289.954C132.422 290.187 131.721 288.551 132.656 287.617L199.97 220.303ZM309.82 133.824C309.586 132.421 311.223 131.72 312.158 132.655L379.472 199.968C380.173 200.436 379.939 201.371 379.472 202.072L321.507 251.622C320.572 252.323 319.17 251.855 319.17 250.687L309.82 133.824ZM287.616 132.655C288.551 131.72 290.187 132.422 290.187 133.59L280.838 250.454C280.604 251.622 279.436 252.089 278.501 251.388L220.303 202.072C219.835 201.604 219.835 200.436 220.303 199.968L287.616 132.655Z" fill="#1F1F1F"/>
</svg>
