<svg width="2000" height="647" viewBox="0 0 2000 647" fill="none" xmlns="http://www.w3.org/2000/svg">
<rect width="2000" height="647" fill="#EEFF00"/>
<path d="M517.127 235.655L458.015 176.542C457.193 175.721 455.757 176.337 455.962 177.569L464.172 280.195C464.172 281.221 465.404 281.632 466.225 281.016L517.127 237.502C517.538 236.887 517.743 236.066 517.127 235.655Z" fill="#2B2929"/>
<path d="M594.303 312.624L535.19 253.511C534.779 253.101 533.753 253.101 533.343 253.511L489.829 304.62C489.213 305.441 489.624 306.467 490.65 306.672L593.277 314.882C594.508 314.882 595.124 313.445 594.303 312.624Z" fill="#2B2929"/>
<path d="M377.35 411.351L436.463 470.464C437.284 471.285 438.721 470.67 438.516 469.438L430.305 366.811C430.305 365.785 429.074 365.375 428.253 365.99L377.35 409.504C376.94 409.915 376.94 410.736 377.35 411.351Z" fill="#2B2929"/>
<path d="M458.015 470.464L517.128 411.351C517.538 410.941 517.538 409.915 517.128 409.504L466.225 365.99C465.404 365.375 464.378 365.785 464.172 366.811L455.962 469.438C455.962 470.67 457.194 471.285 458.015 470.464Z" fill="#2B2929"/>
<path d="M436.463 176.542L377.35 235.655C376.94 236.065 376.94 237.092 377.35 237.502L428.458 280.811C429.279 281.426 430.305 281.016 430.511 279.99L438.721 177.363C438.721 176.337 437.284 175.721 436.463 176.542Z" fill="#2B2929"/>
<path d="M489.829 342.386L533.343 393.289C533.753 393.905 534.574 393.905 535.19 393.289L594.303 334.176C595.124 333.355 594.508 331.919 593.277 332.124L490.65 340.334C489.829 340.334 489.213 341.565 489.829 342.386Z" fill="#2B2929"/>
<path d="M300.38 334.176L359.493 393.289C359.904 393.7 360.93 393.7 361.341 393.289L404.649 342.386C405.265 341.565 404.854 340.539 403.828 340.334L301.201 332.124C300.175 332.124 299.559 333.355 300.38 334.176Z" fill="#2B2929"/>
<path d="M359.493 253.512L300.38 312.625C299.559 313.446 300.175 314.882 301.407 314.677L404.033 306.467C405.059 306.467 405.47 305.235 404.854 304.414L361.34 253.717C360.725 253.101 359.904 253.101 359.493 253.512Z" fill="#2B2929"/>
<path d="M830.549 236.475L807.766 248.79C807.355 248.996 807.15 249.406 807.15 250.022V387.952C807.15 388.773 807.766 389.184 808.382 389.184H830.549C831.37 389.184 831.78 388.568 831.78 387.952V237.707C831.986 236.681 831.37 235.86 830.549 236.475Z" fill="#2B2929"/>
<path d="M905.876 272.805C869.547 269.932 839.374 300.104 842.248 336.434C844.506 364.964 867.699 388.158 896.229 390.415C932.559 393.289 962.731 363.117 959.858 326.787C957.6 298.257 934.406 275.063 905.876 272.805ZM905.671 365.785C883.093 368.659 864.005 349.57 866.878 326.992C868.931 311.598 881.246 299.283 896.64 297.231C919.218 294.357 938.306 313.446 935.433 336.023C933.38 351.417 921.065 363.938 905.671 365.785Z" fill="#2B2929"/>
<path d="M1057.35 281.221C1051.2 277.321 1045.45 274.448 1037.65 273.216C1003.78 267.879 970.942 292.51 968.274 326.787C965.606 361.475 993.725 390.621 1027.8 390.621C1041.14 390.621 1050.38 386.105 1057.35 382C1057.76 381.795 1057.97 381.385 1057.97 380.769V355.728C1057.97 354.496 1056.74 353.881 1055.71 354.702C1049.96 359.422 1041.55 365.375 1029.85 365.991C1011.79 367.017 995.778 353.675 993.52 335.818C990.852 314.882 1007.27 296.82 1027.8 296.82C1041.75 296.82 1049.76 302.978 1055.71 308.109C1056.53 308.93 1057.97 308.314 1057.97 307.083V282.247C1057.97 281.837 1057.76 281.426 1057.35 281.221Z" fill="#2B2929"/>
<path d="M1123.45 323.503L1124.06 322.887L1169.42 275.884C1170.04 275.268 1169.63 274.242 1168.6 274.242H1136.99C1136.58 274.242 1136.17 274.447 1135.97 274.653L1099.64 312.419V237.297C1099.64 236.27 1098.4 235.655 1097.58 236.065L1074.8 248.791C1074.39 248.996 1074.18 249.407 1074.18 250.022V387.952C1074.18 388.773 1074.8 389.389 1075.62 389.389H1098.4C1099.23 389.389 1099.84 388.773 1099.84 387.952V349.365C1099.84 348.954 1100.05 348.749 1100.25 348.339L1105.38 343.002C1106 342.386 1107.02 342.386 1107.44 343.002L1142.94 388.568C1143.15 388.979 1143.56 389.184 1143.97 389.184H1172.71C1173.94 389.184 1174.55 387.952 1173.73 386.926L1123.45 323.503Z" fill="#2B2929"/>
<path d="M1229.77 320.425C1209.04 311.188 1207.6 309.546 1206.16 307.288C1204.73 305.031 1204.73 302.978 1205.34 300.926C1206.57 297.231 1212.11 293.331 1218.48 294.152C1227.71 295.384 1234.28 300.515 1236.54 302.773C1237.16 303.183 1237.98 303.389 1238.59 302.978L1255.01 291.689C1255.63 291.279 1255.83 290.458 1255.22 289.842C1249.27 283.069 1236.54 272.601 1217.04 272.601C1206.37 272.601 1195.28 276.5 1188.31 283.274C1182.15 289.226 1178.66 297.026 1178.66 304.825C1178.66 319.809 1186.87 328.429 1218.89 341.976C1226.28 345.055 1231.2 348.75 1232.43 353.47C1234.69 362.296 1225.05 368.454 1214.78 367.017C1212.11 366.607 1202.67 366.812 1194.46 353.676C1194.05 353.06 1193.23 352.649 1192.41 353.06L1172.5 363.528C1171.68 363.938 1171.47 364.759 1171.88 365.375C1185.02 387.337 1203.49 390.621 1216.01 390.621C1258.09 390.621 1260.96 357.986 1257.27 346.286C1253.58 333.561 1244.54 326.993 1229.77 320.425Z" fill="#2B2929"/>
<path d="M1553.04 320.425C1532.31 311.188 1530.87 309.546 1529.43 307.288C1528 305.031 1528 302.978 1528.61 300.926C1529.84 297.231 1535.39 293.331 1541.75 294.152C1550.99 295.384 1557.55 300.515 1559.81 302.773C1560.43 303.183 1561.25 303.389 1561.86 302.978L1578.28 291.689C1578.9 291.279 1579.11 290.458 1578.49 289.842C1572.95 282.863 1560.22 272.601 1540.52 272.601C1529.84 272.601 1518.76 276.5 1511.78 283.274C1505.63 289.226 1502.14 297.026 1502.14 304.825C1502.14 319.809 1510.35 328.429 1542.37 341.976C1549.75 345.055 1554.68 348.75 1555.91 353.47C1558.17 362.296 1548.52 368.454 1538.26 367.017C1535.59 366.607 1526.15 366.812 1517.94 353.676C1517.53 353.06 1516.71 352.649 1515.89 353.06L1495.98 363.528C1495.16 363.938 1494.95 364.759 1495.36 365.375C1508.5 387.337 1526.97 390.621 1539.49 390.621C1581.57 390.621 1584.44 357.986 1580.75 346.286C1576.85 333.561 1567.82 326.993 1553.04 320.425Z" fill="#2B2929"/>
<path d="M1323.36 272.601C1288.67 272.601 1263.22 301.131 1267.33 339.103C1270.41 368.249 1294.83 391.442 1324.18 390.416C1342.04 389.8 1359.48 381.18 1370.36 367.017C1370.98 366.401 1370.57 365.375 1369.75 364.965L1349.22 355.318C1348.61 355.112 1347.99 355.112 1347.58 355.728C1345.32 358.191 1337.52 365.991 1321.92 365.991C1306.94 365.991 1296.27 356.344 1293.8 341.976H1375.49C1376.32 341.976 1376.93 341.36 1376.93 340.539L1377.14 330.892C1377.14 297.026 1352.71 272.601 1323.36 272.601ZM1293.39 320.014C1297.5 306.878 1308.38 296.615 1322.74 296.615C1337.11 296.615 1347.58 305.441 1350.86 320.014H1293.39Z" fill="#2B2929"/>
<path d="M1646.22 272.601C1611.54 272.601 1586.08 301.131 1590.19 339.103C1593.27 368.249 1617.69 391.442 1647.04 390.416C1664.9 389.8 1682.35 381.18 1693.23 367.017C1693.84 366.401 1693.43 365.375 1692.61 364.965L1672.09 355.318C1671.47 355.112 1670.85 355.112 1670.44 355.728C1668.19 358.191 1660.39 365.991 1644.79 365.991C1629.8 365.991 1619.13 356.344 1616.67 341.976H1698.36C1699.18 341.976 1699.79 341.36 1699.79 340.539L1700 330.892C1700 297.026 1675.37 272.601 1646.22 272.601ZM1616.26 320.014C1620.36 306.878 1631.24 296.615 1645.61 296.615C1659.98 296.615 1670.44 305.441 1673.73 320.014H1616.26Z" fill="#2B2929"/>
<path d="M741.88 272.601C730.385 272.601 720.123 276.09 708.834 284.916V237.708C708.834 236.681 707.602 236.066 706.781 236.476L684.614 248.791C684.204 248.997 683.998 249.407 683.998 250.023V387.953C683.998 388.774 684.614 389.39 685.435 389.39H707.602C708.423 389.39 709.039 388.774 709.039 387.953V378.511C717.66 385.49 729.975 390.827 742.085 390.827C773.694 390.827 797.914 365.786 797.914 331.919C797.708 297.642 773.489 272.601 741.88 272.601ZM741.88 366.402C737.364 366.402 732.848 365.581 728.743 363.733C716.428 358.191 709.45 344.439 709.45 331.508C709.45 310.367 723.202 299.489 736.133 297.231C736.543 297.231 736.954 297.026 737.364 297.026C737.569 297.026 737.569 297.026 737.775 297.026C738.185 297.026 738.801 297.026 739.211 296.821C739.417 296.821 739.622 296.821 739.827 296.821H740.032C740.443 296.821 740.853 296.821 741.264 296.821C741.469 296.821 741.674 296.821 741.674 296.821C762.815 296.821 772.052 314.883 772.052 331.714C772.257 355.523 756.658 366.402 741.88 366.402Z" fill="#2B2929"/>
<path d="M1473.4 282.248C1480.58 288.816 1484.07 298.463 1484.07 311.394V387.953C1484.07 388.569 1483.46 389.185 1482.84 389.185H1459.44C1458.83 389.185 1458.21 388.569 1458.21 387.953V319.398C1458.21 307.699 1456.57 303.183 1453.29 299.694C1450 296.205 1445.28 294.563 1439.33 294.563C1432.56 294.563 1425.78 296.615 1421.88 300.515C1417.78 304.415 1414.08 310.573 1414.08 322.272V387.953C1414.08 388.569 1413.47 389.185 1412.85 389.185H1389.86C1389.25 389.185 1388.63 388.569 1388.63 387.953V275.269C1388.63 274.653 1389.25 274.038 1389.86 274.038H1413.26C1413.88 274.038 1414.49 274.653 1414.49 275.269V284.095C1417.98 280.4 1422.5 277.527 1427.83 275.474C1433.17 273.422 1438.92 272.396 1445.28 272.396C1456.98 272.396 1466.22 275.68 1473.4 282.248Z" fill="#2B2929"/>
</svg>
