<svg width="1793" height="847" viewBox="0 0 1793 847" fill="none" xmlns="http://www.w3.org/2000/svg">
<rect width="1793" height="847" fill="#1F1F1F"/>
<path d="M944.624 226.71L892.32 174.406C891.542 173.629 890.181 174.212 890.375 175.379L897.57 266.182C897.57 267.154 898.736 267.543 899.514 266.959L944.624 228.46C945.207 227.877 945.207 227.099 944.624 226.71Z" fill="#EEFF00"/>
<path d="M1016.95 299.042L964.65 246.738C964.262 246.349 963.289 246.349 962.9 246.738L924.402 291.848C923.818 292.625 924.207 293.598 925.179 293.792L1015.98 300.986C1017.15 300.986 1017.73 299.82 1016.95 299.042Z" fill="#EEFF00"/>
<path d="M815.127 396.261L867.431 448.565C868.209 449.343 869.57 448.76 869.376 447.593L862.181 356.79C862.181 355.818 861.015 355.429 860.237 356.012L815.127 394.511C814.738 394.9 814.738 395.678 815.127 396.261Z" fill="#EEFF00"/>
<path d="M924.596 330.93L963.095 376.04C963.484 376.623 964.262 376.623 964.845 376.04L1017.15 323.735C1017.93 322.958 1017.34 321.597 1016.18 321.791L925.374 329.18C924.402 329.18 924.013 330.346 924.596 330.93Z" fill="#EEFF00"/>
<path d="M867.431 174.406L815.127 226.71C814.738 227.099 814.738 228.072 815.127 228.46L860.237 266.959C861.015 267.543 861.987 267.154 862.181 266.182L869.376 175.379C869.57 174.212 868.209 173.629 867.431 174.406Z" fill="#EEFF00"/>
<path d="M892.319 448.371L944.623 396.067C945.012 395.678 945.012 394.706 944.623 394.317L899.514 355.818C898.736 355.234 897.764 355.623 897.569 356.596L890.375 447.399C890.375 448.565 891.542 449.149 892.319 448.371Z" fill="#EEFF00"/>
<path d="M795.295 246.738L742.991 299.042C742.213 299.82 742.796 301.181 743.963 300.986L834.766 293.792C835.738 293.792 836.127 292.625 835.544 291.848L797.045 246.738C796.462 246.154 795.684 246.154 795.295 246.738Z" fill="#EEFF00"/>
<path d="M742.99 323.93L795.294 376.234C795.683 376.623 796.655 376.623 797.044 376.234L835.543 331.124C836.127 330.347 835.738 329.374 834.766 329.18L743.768 321.791C742.796 321.791 742.213 323.152 742.99 323.93Z" fill="#EEFF00"/>
<path d="M541.163 526.924L519.58 538.59C519.191 538.785 518.997 539.174 518.997 539.757V670.42C518.997 671.198 519.58 671.587 520.163 671.587H541.163C541.94 671.587 542.329 671.003 542.329 670.42V527.896C542.524 526.924 541.94 526.341 541.163 526.924Z" fill="#FFFBFA"/>
<path d="M618.355 561.34C583.939 558.618 555.357 587.2 558.079 621.616C560.218 648.643 582.19 670.615 609.217 672.753C643.632 675.476 672.215 646.893 669.493 612.477C667.354 585.45 645.382 563.479 618.355 561.34ZM618.161 649.421C596.772 652.143 578.69 634.06 581.412 612.672C583.356 598.089 595.023 586.422 609.605 584.478C630.994 581.756 649.077 599.839 646.354 621.227C644.41 635.81 632.744 647.671 618.161 649.421Z" fill="#FFFBFA"/>
<path d="M763.795 569.312C757.962 565.617 752.518 562.895 745.129 561.729C713.047 556.673 681.937 580.006 679.409 612.477C676.881 645.337 703.519 672.948 735.796 672.948C748.435 672.948 757.185 668.67 763.795 664.781C764.184 664.587 764.379 664.198 764.379 663.615V639.893C764.379 638.726 763.212 638.143 762.24 638.921C756.796 643.393 748.824 649.032 737.741 649.615C720.63 650.587 705.464 637.949 703.325 621.032C700.797 601.2 716.352 584.089 735.796 584.089C749.018 584.089 756.601 589.922 762.24 594.783C763.018 595.561 764.379 594.978 764.379 593.811V570.284C764.379 569.895 764.184 569.506 763.795 569.312Z" fill="#FFFBFA"/>
<path d="M829.516 609.172L830.099 608.589L873.07 564.062C873.654 563.479 873.265 562.506 872.293 562.506H842.349C841.96 562.506 841.571 562.701 841.377 562.895L806.767 598.672V527.507C806.767 526.535 805.6 525.952 804.822 526.341L783.24 538.396C782.851 538.59 782.656 538.979 782.656 539.563V670.226C782.656 671.003 783.24 671.587 784.017 671.587H805.6C806.378 671.587 806.961 671.003 806.961 670.226V633.866C806.961 633.477 807.156 633.282 807.35 632.893L812.211 627.838C812.794 627.255 813.766 627.255 814.155 627.838L847.793 671.003C847.988 671.392 848.377 671.587 848.766 671.587H875.987C877.154 671.587 877.737 670.42 876.959 669.448L829.516 609.172Z" fill="#FFFBFA"/>
<path d="M935.874 606.45C916.236 597.7 914.874 596.145 913.513 594.006C912.152 591.867 912.152 589.922 912.736 587.978C913.902 584.478 919.152 580.784 925.18 581.562C933.93 582.728 940.152 587.589 942.29 589.728C942.874 590.117 943.651 590.311 944.235 589.922L959.79 579.228C960.373 578.839 960.568 578.062 959.984 577.478C954.346 571.062 942.29 561.146 923.819 561.146C913.708 561.146 903.208 564.84 896.597 571.256C890.764 576.895 887.459 584.284 887.459 591.672C887.459 605.866 895.236 614.033 925.569 626.866C932.568 629.782 937.235 633.282 938.402 637.754C940.54 646.115 931.402 651.949 921.68 650.587C919.152 650.199 910.208 650.393 902.43 637.949C902.042 637.366 901.264 636.977 900.486 637.366L881.625 647.282C880.848 647.671 880.653 648.449 881.042 649.032C893.486 669.837 910.986 672.948 922.847 672.948C962.707 672.948 965.429 642.032 961.929 630.949C958.429 618.894 949.874 612.672 935.874 606.45Z" fill="#FFFBFA"/>
<path d="M1254.37 606.45C1234.73 597.7 1233.37 596.145 1232 594.006C1230.64 591.867 1230.64 589.922 1231.23 587.978C1232.39 584.478 1237.64 580.784 1243.67 581.562C1252.42 582.728 1258.64 587.589 1260.78 589.728C1261.36 590.117 1262.14 590.311 1262.73 589.922L1278.28 579.228C1278.86 578.839 1279.06 578.062 1278.48 577.478C1272.84 571.062 1260.78 561.146 1242.31 561.146C1232.2 561.146 1221.7 564.84 1215.09 571.256C1209.26 576.895 1205.95 584.284 1205.95 591.672C1205.95 605.866 1213.73 614.033 1244.06 626.866C1251.06 629.782 1255.73 633.282 1256.89 637.754C1259.03 646.115 1249.89 651.949 1240.17 650.587C1237.64 650.199 1228.7 650.393 1220.92 637.949C1220.53 637.366 1219.75 636.977 1218.98 637.366L1200.12 647.282C1199.34 647.671 1199.14 648.449 1199.53 649.032C1211.98 669.837 1229.48 672.948 1241.34 672.948C1281.2 672.948 1283.92 642.032 1280.42 630.949C1276.92 618.894 1268.36 612.672 1254.37 606.45Z" fill="#FFFBFA"/>
<path d="M1027.84 561.146C994.983 561.146 970.873 588.173 974.761 624.144C977.678 651.754 1000.82 673.726 1028.62 672.754C1045.54 672.17 1062.06 664.004 1072.37 650.587C1072.95 650.004 1072.56 649.032 1071.79 648.643L1052.34 639.504C1051.76 639.31 1051.18 639.31 1050.79 639.893C1048.65 642.227 1041.26 649.615 1026.48 649.615C1012.29 649.615 1002.18 640.477 999.844 626.866H1077.23C1078.01 626.866 1078.59 626.283 1078.59 625.505L1078.79 616.366C1078.79 584.284 1055.65 561.146 1027.84 561.146ZM999.455 605.866C1003.34 593.422 1013.65 583.7 1027.26 583.7C1040.87 583.7 1050.79 592.061 1053.9 605.866H999.455Z" fill="#FFFBFA"/>
<path d="M1345.56 561.146C1312.7 561.146 1288.59 588.173 1292.48 624.144C1295.39 651.754 1318.53 673.726 1346.33 672.754C1363.25 672.17 1379.78 664.004 1390.08 650.587C1390.67 650.004 1390.28 649.032 1389.5 648.643L1370.06 639.504C1369.47 639.31 1368.89 639.31 1368.5 639.893C1366.36 642.227 1358.97 649.615 1344.2 649.615C1330 649.615 1319.89 640.477 1317.56 626.866H1394.94C1395.72 626.866 1396.31 626.283 1396.31 625.505L1396.5 616.366C1396.5 584.284 1373.17 561.146 1345.56 561.146ZM1317.17 605.866C1321.06 593.422 1331.36 583.7 1344.97 583.7C1358.58 583.7 1368.5 592.061 1371.61 605.866H1317.17Z" fill="#FFFBFA"/>
<path d="M451.332 561.146C440.443 561.146 430.721 564.451 420.027 572.812V528.091C420.027 527.119 418.86 526.535 418.083 526.924L397.083 538.591C396.694 538.785 396.5 539.174 396.5 539.563V670.226C396.5 671.004 397.083 671.587 397.861 671.587H418.86C419.638 671.587 420.222 671.004 420.222 670.226V661.282C428.388 667.893 440.054 672.948 451.526 672.948C481.47 672.948 504.414 649.226 504.414 617.144C504.219 584.673 481.275 561.146 451.332 561.146ZM451.332 650.004C447.054 650.004 442.776 649.226 438.888 647.477C427.221 642.227 420.61 629.199 420.61 616.95C420.61 596.922 433.638 586.617 445.888 584.478C446.276 584.478 446.665 584.284 447.054 584.284C447.249 584.284 447.249 584.284 447.443 584.284C447.832 584.284 448.415 584.284 448.804 584.089C448.999 584.089 449.193 584.089 449.387 584.089H449.582C449.971 584.089 450.36 584.089 450.748 584.089C450.943 584.089 451.137 584.089 451.137 584.089C471.165 584.089 479.914 601.2 479.914 617.144C480.109 639.699 465.331 650.004 451.332 650.004Z" fill="#FFFBFA"/>
<path d="M1175.62 570.284C1182.42 576.506 1185.73 585.645 1185.73 597.894V670.42C1185.73 671.003 1185.14 671.587 1184.56 671.587H1162.59C1162.01 671.587 1161.42 671.003 1161.42 670.42V605.477C1161.42 594.394 1159.87 590.117 1156.76 586.811C1153.65 583.506 1149.17 581.95 1143.53 581.95C1137.12 581.95 1130.7 583.895 1127.01 587.589C1123.12 591.283 1119.62 597.117 1119.62 608.2V670.42C1119.62 671.003 1119.04 671.587 1118.45 671.587H1096.67C1096.09 671.587 1095.51 671.003 1095.51 670.42V563.673C1095.51 563.09 1096.09 562.506 1096.67 562.506H1118.84C1119.42 562.506 1120.01 563.09 1120.01 563.673V572.034C1123.31 568.534 1127.59 565.812 1132.65 563.868C1137.7 561.923 1143.15 560.951 1149.17 560.951C1160.06 560.951 1169.01 564.062 1175.62 570.284Z" fill="#FFFBFA"/>
</svg>
