<svg width="495" height="299" viewBox="0 0 495 299" fill="none" xmlns="http://www.w3.org/2000/svg">
<path d="M99 1.9834L99 100.983L-4.32743e-06 100.983C-1.93746e-06 46.3072 44.3238 1.9834 99 1.9834Z" fill="#4E4E4E"/>
<path d="M495 198.835C495 253.512 450.676 297.835 396 297.835L396 198.835L495 198.835Z" fill="#4E4E4E"/>
<rect y="199.017" width="99" height="99" fill="#4E4E4E"/>
<rect x="297" y="1.9834" width="99" height="99" fill="#3B3B3B"/>
<rect x="99.0005" y="100.581" width="99" height="99" fill="#3B3B3B"/>
<rect x="297" y="100" width="99" height="99" fill="#4E4E4E"/>
<rect x="198" y="198.85" width="198" height="99" fill="#3B3B3B"/>
<rect x="98.9922" y="1.9834" width="99" height="99" fill="#FFFBFA"/>
<rect x="198" y="100" width="99" height="99" fill="#EEFF00"/>
<path d="M253 120.373C255.222 120.726 257.259 121.33 259.11 122.187C262.277 123.644 264.741 125.672 266.5 128.27C268.259 130.867 269.166 133.875 269.222 137.294H257.695C257.473 135.033 256.518 133.276 254.833 132.024C253.148 130.773 250.86 130.147 247.972 130.147C246.009 130.147 244.352 130.427 243 130.987C241.648 131.529 240.611 132.286 239.889 133.257C239.185 134.228 238.833 135.332 238.833 136.565C238.796 137.593 239.009 138.491 239.472 139.257C239.953 140.023 240.611 140.686 241.444 141.246C242.278 141.788 243.241 142.264 244.333 142.675C245.426 143.067 246.592 143.404 247.833 143.685L252.944 144.918C255.425 145.478 257.704 146.225 259.777 147.159C261.851 148.093 263.648 149.243 265.167 150.607C266.685 151.971 267.862 153.579 268.695 155.429C269.547 157.278 269.981 159.399 270 161.79C269.981 165.303 269.093 168.349 267.334 170.928C265.593 173.487 263.074 175.477 259.777 176.897C257.771 177.755 255.512 178.349 253 178.682V188H243V178.7C240.407 178.367 238.046 177.758 235.916 176.87C232.527 175.45 229.879 173.347 227.972 170.562C226.083 167.76 225.093 164.294 225 160.165H236.638C236.767 162.09 237.315 163.697 238.278 164.986C239.26 166.257 240.565 167.219 242.194 167.873C243.842 168.508 245.704 168.826 247.778 168.826C249.815 168.826 251.583 168.527 253.083 167.929C254.601 167.331 255.778 166.5 256.611 165.435C257.445 164.37 257.861 163.145 257.861 161.763C257.861 160.474 257.481 159.39 256.722 158.512C255.981 157.634 254.888 156.885 253.443 156.269C252.018 155.652 250.268 155.091 248.194 154.587L241.999 153.018C237.203 151.84 233.416 150 230.639 147.496C227.861 144.992 226.482 141.619 226.5 137.378C226.482 133.903 227.398 130.867 229.25 128.27C231.12 125.672 233.684 123.644 236.943 122.187C238.815 121.349 240.835 120.754 243 120.397V111H253V120.373Z" fill="#262626"/>
<rect x="396" width="99" height="99" fill="#FFFBFA"/>
<circle cx="436.975" cy="37.7939" r="9.5" stroke="#262626" stroke-width="8"/>
<circle cx="472.372" cy="65.5791" r="9.5" stroke="#262626" stroke-width="8"/>
<path d="M478.3 25.7927L442.673 76.968L431.4 76.968L467.13 25.7927L478.3 25.7927Z" fill="#262626"/>
<path d="M405.5 56.5H425" stroke="#262626" stroke-width="8"/>
<path d="M99 199H198V298H99V199Z" fill="#FFFBFA"/>
<path d="M113 207.5V284.5H187.5" stroke="#262626" stroke-width="10"/>
<path d="M112.5 228L145 260.5L157 248.5L176.5 268" stroke="#262626" stroke-width="10"/>
</svg>

