<svg width="495" height="299" viewBox="0 0 495 299" fill="none" xmlns="http://www.w3.org/2000/svg">
<path d="M0 199.066H99V298.066C44.3238 298.066 0 253.742 0 199.066Z" fill="#4E4E4E"/>
<rect y="100.066" width="99" height="99" fill="#3B3B3B"/>
<path d="M396 1.66431C450.676 1.66431 495 45.9881 495 100.664H396V1.66431Z" fill="#4E4E4E"/>
<rect x="297" y="199.663" width="99" height="99" fill="#4E4E4E"/>
<rect x="198" y="199.551" width="99" height="99" fill="#4E4E4E"/>
<rect x="297" y="2.22241" width="99" height="99" fill="#3B3B3B"/>
<rect x="100" y="0.670166" width="99" height="99" fill="#3B3B3B"/>
<rect x="396" y="199.64" width="99" height="99" fill="#3B3B3B"/>
<rect x="99" y="99.3162" width="99" height="99" fill="#3B3B3B"/>
<rect x="198" y="0.816162" width="99" height="99" fill="#3B3B3B"/>
<rect x="297" y="100.656" width="99" height="99" fill="#3B3B3B"/>
<rect x="297" y="1.65552" width="99" height="99" fill="#FFFBFA"/>
<path d="M327.305 91.6555C315.734 91.6555 309.136 84.677 309.136 74.9602V67.6283C309.136 60.2965 306.605 57.8231 301 57.8231V47.3996C306.605 47.4879 309.136 45.0145 309.136 37.5944V30.2625C309.136 20.5457 315.734 13.6555 327.305 13.6555H333V25.0508C325.407 24.7858 322.062 27.0825 322.062 32.3826V38.4777C322.062 46.7812 317.181 51.6397 311.667 52.3463V52.8764C317.362 53.583 322.062 58.4415 322.062 66.745V72.9284C322.062 78.3169 325.407 80.8786 333 80.6136V91.6555H327.305Z" fill="#262626"/>
<path d="M366.695 13.6555C378.266 13.6555 384.864 20.634 384.864 30.3509L384.864 37.6827C384.864 45.0145 387.395 47.4879 393 47.4879L393 57.9115C387.395 57.8231 384.864 60.2965 384.864 67.7167L384.864 75.0485C384.864 84.7654 378.266 91.6555 366.695 91.6555L361 91.6555L361 80.2603C368.593 80.5253 371.938 78.2286 371.938 72.9285L371.938 66.8333C371.938 58.5298 376.819 53.6714 382.333 52.9647L382.333 52.4347C376.638 51.728 371.938 46.8696 371.938 38.5661L371.938 32.3826C371.938 26.9941 368.593 24.4324 361 24.6974L361 13.6555L366.695 13.6555Z" fill="#262626"/>
<rect x="429" y="265.656" width="33" height="33" transform="rotate(180 429 265.656)" fill="#A8A8A8"/>
<path d="M462 232.656C462 250.881 447.225 265.656 429 265.656L429 232.656L462 232.656Z" fill="#C5C5C5"/>
<rect x="462" y="232.656" width="33" height="33" transform="rotate(180 462 232.656)" fill="#ECECEB"/>
<rect width="33" height="33" transform="matrix(1 8.74228e-08 8.74228e-08 -1 165 265.431)" fill="#ECECEB"/>
<path d="M132 232.431C132 250.656 146.775 265.431 165 265.431L165 232.431L132 232.431Z" fill="#C5C5C5"/>
<rect width="33" height="33" transform="matrix(1 8.74228e-08 8.74228e-08 -1 132 232.431)" fill="#B4B4B4"/>
<rect width="33" height="33" transform="matrix(-4.37114e-08 1 1 4.37114e-08 132 67.4309)" fill="#ECECEB"/>
<path d="M165 34.4309C146.775 34.4309 132 49.2055 132 67.4309L165 67.4309L165 34.4309Z" fill="#B4B4B4"/>
<rect width="33" height="33" transform="matrix(-4.37114e-08 1 1 4.37114e-08 165 34.4309)" fill="#C5C5C5"/>
<rect x="396" y="101" width="99" height="99" fill="#FFFBFA"/>
<path d="M445.5 110L480.574 130.25V170.75L445.5 191L410.426 170.75V130.25L445.5 110Z" fill="#262626"/>
<path d="M410.5 130.5L445.5 110L480.5 130L445.5 149L410.5 130.5Z" fill="#3C3C3C"/>
<path d="M411 171V130.5L445.5 149V191L411 171Z" fill="#474747"/>
<rect x="99" y="100.431" width="99" height="99" fill="#FFFBFA"/>
<path d="M148.5 109.514L183.574 129.764V170.264L148.5 190.514L113.426 170.264V129.764L148.5 109.514Z" fill="#262626"/>
<path d="M113.5 130.014L148.5 109.514L183.5 129.514L148.5 148.514L113.5 130.014Z" fill="#3C3C3C"/>
<path d="M114 170.514V130.014L148.5 148.514V190.514L114 170.514Z" fill="#474747"/>
<rect x="198" y="232.431" width="33" height="33" fill="#ECECEB"/>
<rect x="231" y="232.431" width="33" height="33" fill="#C5C5C5"/>
<rect x="264" y="232.431" width="33" height="33" fill="#A8A8A8"/>
<rect x="297" y="232.656" width="33" height="33" fill="#ECECEB"/>
<rect x="330" y="232.656" width="33" height="33" fill="#C5C5C5"/>
<rect x="363" y="232.656" width="33" height="33" fill="#A8A8A8"/>
<rect x="198" y="34.6628" width="33" height="33" fill="#A8A8A8"/>
<rect x="231" y="34.6628" width="33" height="33" fill="#A8A8A8"/>
<rect x="264" y="34.6628" width="33" height="33" fill="#A8A8A8"/>
<rect x="198" y="199.656" width="99" height="99" fill="#EEFF00"/>
<path d="M229.096 261.238C229.434 260.899 229.899 260.702 230.392 260.702H275.085C275.901 260.702 276.31 261.69 275.732 262.269L266.904 271.119C266.566 271.458 266.101 271.656 265.608 271.656H220.915C220.099 271.656 219.69 270.668 220.268 270.089L229.096 261.238Z" fill="#262626"/>
<path d="M229.096 228.192C229.448 227.853 229.913 227.656 230.392 227.656H275.085C275.901 227.656 276.31 228.644 275.732 229.223L266.904 238.073C266.566 238.412 266.101 238.61 265.608 238.61H220.915C220.098 238.61 219.69 237.622 220.267 237.043L229.096 228.192Z" fill="#262626"/>
<path d="M266.904 244.609C266.566 244.27 266.101 244.073 265.608 244.073H220.915C220.099 244.073 219.69 245.061 220.268 245.64L229.096 254.491C229.434 254.829 229.899 255.027 230.392 255.027H275.085C275.901 255.027 276.31 254.039 275.732 253.46L266.904 244.609Z" fill="#262626"/>
</svg>

