<svg width="495" height="299" viewBox="0 0 495 299" fill="none" xmlns="http://www.w3.org/2000/svg">
<path d="M215.998 6.08847C227.453 6.08847 233.986 12.9972 233.986 22.6169L233.986 29.8754C233.986 37.1339 236.492 39.5825 242.04 39.5825L242.04 49.9019C236.492 49.8144 233.986 52.2631 233.986 59.609L233.986 66.8675C233.986 76.4872 227.453 83.3085 215.998 83.3085L210.36 83.3085L210.36 72.0272C217.877 72.2895 221.189 70.0158 221.189 64.7687L221.189 58.7345C221.189 50.514 226.021 45.7042 231.48 45.0046L231.48 44.4798C225.842 43.7802 221.189 38.9704 221.189 30.7499L221.189 24.6283C221.189 19.2937 217.877 16.7576 210.36 17.02L210.36 6.08847L215.998 6.08847Z" fill="#262626"/>
<path d="M0 198.583H99V297.583C44.3238 297.583 0 253.26 0 198.583Z" fill="#4E4E4E"/>
<path d="M396 0.583374C450.676 0.583374 495 44.9072 495 99.5834V198.583H396V0.583374Z" fill="#4E4E4E"/>
<rect x="297" y="198.583" width="99" height="99" fill="#4E4E4E"/>
<rect y="100.083" width="99" height="99" fill="#4E4E4E"/>
<rect x="297" y="0.583374" width="99" height="99" fill="#3B3B3B"/>
<rect x="99" y="99.5834" width="99" height="99" fill="#3B3B3B"/>
<rect x="198" y="1.08337" width="99" height="99" fill="#3B3B3B"/>
<rect x="231" y="198.583" width="33" height="33" fill="#A8A8A8"/>
<path d="M231 231.583H264C264 249.809 249.225 264.583 231 264.583V231.583Z" fill="#C5C5C5"/>
<rect x="198" y="231.583" width="33" height="33" fill="#ECECEB"/>
<rect width="33" height="33" transform="matrix(1 0 0 -1 231 100.083)" fill="#A8A8A8"/>
<path d="M231 67.0834H264C264 48.858 249.225 34.0834 231 34.0834V67.0834Z" fill="#A8A8A8"/>
<rect width="33" height="33" transform="matrix(1 0 0 -1 198 67.0834)" fill="#A8A8A8"/>
<rect x="297" y="133.083" width="33" height="33" fill="#ECECEB"/>
<rect x="330" y="133.083" width="33" height="33" fill="#C5C5C5"/>
<rect x="363" y="133.083" width="33" height="33" fill="#A8A8A8"/>
<rect x="99" y="34.0834" width="33" height="33" fill="#ECECEB"/>
<rect x="132" y="34.0834" width="33" height="33" fill="#C5C5C5"/>
<rect x="165" y="34.0834" width="33" height="33" fill="#A8A8A8"/>
<rect y="1.20837" width="99" height="99" fill="#FFFBFA"/>
<path d="M30.002 90.3084C18.5471 90.3084 12.0142 83.3997 12.0142 73.78V66.5215C12.0142 59.263 9.50843 56.8143 3.95996 56.8143V46.495C9.50843 46.5824 12.0142 44.1338 12.0142 36.7878V29.5293C12.0142 19.9096 18.5471 13.0884 30.002 13.0884H35.64V24.3697C28.1227 24.1073 24.8115 26.3811 24.8115 31.6282V37.6624C24.8115 45.8828 19.9789 50.6927 14.52 51.3923V51.917C20.1579 52.6166 24.8115 57.4265 24.8115 65.6469V71.7686C24.8115 77.1031 28.1227 79.6393 35.64 79.3769V90.3084H30.002Z" fill="#262626"/>
<path d="M68.998 13.0884C80.4529 13.0883 86.9858 19.997 86.9858 29.6168L86.9858 36.8753C86.9858 44.1338 89.4916 46.5824 95.04 46.5824L95.04 56.9017C89.4916 56.8143 86.9858 59.2629 86.9858 66.6089L86.9858 73.8674C86.9858 83.4871 80.4529 90.3084 68.998 90.3084L63.36 90.3084L63.36 79.0271C70.8773 79.2894 74.1885 77.0157 74.1885 71.7686L74.1885 65.7344C74.1885 57.5139 79.0211 52.704 84.48 52.0044L84.48 51.4797C78.8421 50.7801 74.1885 45.9703 74.1885 37.7498L74.1885 31.6281C74.1885 26.2936 70.8773 23.7575 63.36 24.0198L63.36 13.0884L68.998 13.0884Z" fill="#262626"/>
<rect x="396" y="99.8334" width="99" height="99" fill="#FFFBFA"/>
<g clip-path="url(#clip0_3559_2550)">
<path d="M445.992 106.833L445.424 108.77V164.974L445.992 165.543L471.984 150.122L445.992 106.833Z" fill="#343434"/>
<path d="M445.992 106.833L420 150.122L445.992 165.543V138.263V106.833Z" fill="#8C8C8C"/>
<path d="M445.992 170.482L445.672 170.874V190.894L445.992 191.833L472 155.069L445.992 170.482Z" fill="#3C3C3B"/>
<path d="M445.992 191.833V170.482L420 155.069L445.992 191.833Z" fill="#8C8C8C"/>
<path d="M445.992 165.543L471.984 150.122L445.992 138.263V165.543Z" fill="#141414"/>
<path d="M420 150.122L445.992 165.543V138.263L420 150.122Z" fill="#393939"/>
</g>
<path d="M30.002 90.3083C18.5471 90.3083 12.0142 83.3996 12.0142 73.7799V66.5213C12.0142 59.2628 9.50843 56.8142 3.95996 56.8142V46.4949C9.50843 46.5823 12.0142 44.1337 12.0142 36.7877V29.5292C12.0142 19.9095 18.5471 13.0883 30.002 13.0883H35.64V24.3695C28.1227 24.1072 24.8115 26.3809 24.8115 31.6281V37.6622C24.8115 45.8827 19.9789 50.6926 14.52 51.3922V51.9169C20.1579 52.6165 24.8115 57.4264 24.8115 65.6468V71.7685C24.8115 77.103 28.1227 79.6391 35.64 79.3768V90.3083H30.002Z" fill="#262626"/>
<path d="M68.998 13.0885C80.4529 13.0885 86.9858 19.9972 86.9858 29.6169L86.9858 36.8754C86.9858 44.1339 89.4916 46.5825 95.04 46.5825L95.04 56.9019C89.4916 56.8144 86.9858 59.2631 86.9858 66.609L86.9858 73.8675C86.9858 83.4872 80.4529 90.3085 68.998 90.3085L63.36 90.3085L63.36 79.0272C70.8773 79.2895 74.1885 77.0158 74.1885 71.7687L74.1885 65.7345C74.1885 57.514 79.0211 52.7042 84.48 52.0046L84.48 51.4798C78.8421 50.7802 74.1885 45.9704 74.1885 37.7499L74.1885 31.6283C74.1885 26.2937 70.8773 23.7576 63.36 24.02L63.36 13.0885L68.998 13.0885Z" fill="#262626"/>
<rect x="198" y="100.083" width="99" height="99" fill="#EEFF00"/>
<path d="M268.233 111.083H262.333L223 153.252L242.746 154.252L229 189.083H234.487L273 146.559L253.956 144.559L268.233 111.083Z" fill="#181818"/>
<rect x="99" y="199.083" width="99" height="99" fill="#FFFBFA"/>
<path d="M129.002 288.183C117.547 288.183 111.014 281.275 111.014 271.655V264.396C111.014 257.138 108.508 254.689 102.96 254.689V244.37C108.508 244.457 111.014 242.009 111.014 234.663V227.404C111.014 217.785 117.547 210.963 129.002 210.963H134.64V222.245C127.123 221.982 123.811 224.256 123.811 229.503V235.537C123.811 243.758 118.979 248.568 113.52 249.267V249.792C119.158 250.492 123.811 255.301 123.811 263.522V269.644C123.811 274.978 127.123 277.514 134.64 277.252V288.183H129.002Z" fill="#262626"/>
<path d="M167.998 210.963C179.453 210.963 185.986 217.872 185.986 227.492L185.986 234.75C185.986 242.009 188.492 244.457 194.04 244.457L194.04 254.777C188.492 254.689 185.986 257.138 185.986 264.484L185.986 271.742C185.986 281.362 179.453 288.183 167.998 288.183L162.36 288.183L162.36 276.902C169.877 277.164 173.189 274.891 173.189 269.644L173.189 263.609C173.189 255.389 178.021 250.579 183.48 249.879L183.48 249.355C177.842 248.655 173.189 243.845 173.189 235.625L173.189 229.503C173.189 224.169 169.877 221.632 162.36 221.895L162.36 210.963L167.998 210.963Z" fill="#262626"/>
<defs>
<clipPath id="clip0_3559_2550">
<rect width="52" height="85" fill="white" transform="translate(420 106.833)"/>
</clipPath>
</defs>
</svg>


