<svg width="495" height="299" viewBox="0 0 495 299" fill="none" xmlns="http://www.w3.org/2000/svg">
<path d="M495 199.282L396 199.282L396 298.282C450.676 298.282 495 253.959 495 199.282Z" fill="#4E4E4E"/>
<rect x="297" y="199.282" width="99" height="99" fill="#4E4E4E"/>
<rect x="396" y="1.28247" width="99" height="99" fill="#4E4E4E"/>
<rect x="297.062" y="0.384033" width="99" height="99" fill="#3B3B3B"/>
<rect x="99" y="100.282" width="99" height="99" fill="#3B3B3B"/>
<rect x="297" y="100.282" width="99" height="99" fill="#3B3B3B"/>
<path d="M0 100.282C0 45.6063 44.3238 1.28247 99 1.28247V100.282H0Z" fill="#3B3B3B"/>
<rect x="198" y="1.28247" width="99" height="99" fill="#3B3B3B"/>
<rect x="396" y="100.282" width="99" height="99" fill="#ECECEB"/>
<rect x="424.125" y="107.213" width="42.75" height="42.75" rx="21.375" fill="#262626"/>
<path d="M445.5 153.81C424.723 153.81 407.88 170.653 407.88 191.43C410.017 191.43 410.231 191.43 411.3 191.43C415.575 191.43 413.624 191.43 416.644 191.43H476.066C478.48 191.43 478.631 191.43 479.914 191.43C481.196 191.43 482.051 191.43 483.12 191.43C483.12 170.653 466.277 153.81 445.5 153.81Z" fill="#262626"/>
<rect x="198" y="199.282" width="99" height="99" fill="#3B3B3B"/>
<rect x="297" y="1.28247" width="99" height="99" fill="#FFFBFA"/>
<path d="M328.064 90.1089C316.61 90.1089 310.077 83.2002 310.077 73.5805V66.322C310.077 59.0635 307.571 56.6148 302.022 56.6148V46.2955C307.571 46.383 310.077 43.9343 310.077 36.5884V29.3299C310.077 19.7102 316.61 12.8889 328.064 12.8889H333.702V24.1702C326.185 23.9078 322.874 26.1816 322.874 31.4287V37.4629C322.874 45.6834 318.041 50.4932 312.582 51.1928V51.7175C318.22 52.4172 322.874 57.227 322.874 65.4475V71.5691C322.874 76.9037 326.185 79.4398 333.702 79.1774V90.1089H328.064Z" fill="#262626"/>
<path d="M367.06 12.8891C378.515 12.8891 385.048 19.7978 385.048 29.4175L385.048 36.676C385.048 43.9345 387.554 46.3832 393.103 46.3832L393.103 56.7025C387.554 56.6151 385.048 59.0637 385.048 66.4097L385.048 73.6682C385.048 83.2879 378.515 90.1091 367.061 90.1091L361.423 90.1091L361.423 78.8278C368.94 79.0902 372.251 76.8164 372.251 71.5693L372.251 65.5352C372.251 57.3147 377.084 52.5048 382.543 51.8052L382.543 51.2805C376.905 50.5809 372.251 45.771 372.251 37.5506L372.251 31.4289C372.251 26.0944 368.94 23.5583 361.423 23.8206L361.423 12.8891L367.06 12.8891Z" fill="#262626"/>
<rect x="198" y="199.282" width="99" height="99" fill="#FFFBFA"/>
<path d="M229.064 288.109C217.61 288.109 211.077 281.2 211.077 271.581V264.322C211.077 257.064 208.571 254.615 203.022 254.615V244.296C208.571 244.383 211.077 241.934 211.077 234.588V227.33C211.077 217.71 217.61 210.889 229.064 210.889H234.702V222.17C227.185 221.908 223.874 224.182 223.874 229.429V235.463C223.874 243.683 219.041 248.493 213.582 249.193V249.718C219.22 250.417 223.874 255.227 223.874 263.447V269.569C223.874 274.904 227.185 277.44 234.702 277.177V288.109H229.064Z" fill="#262626"/>
<path d="M268.06 210.889C279.515 210.889 286.048 217.798 286.048 227.418L286.048 234.676C286.048 241.935 288.554 244.383 294.103 244.383L294.103 254.703C288.554 254.615 286.048 257.064 286.048 264.41L286.048 271.668C286.048 281.288 279.515 288.109 268.061 288.109L262.423 288.109L262.423 276.828C269.94 277.09 273.251 274.816 273.251 269.569L273.251 263.535C273.251 255.315 278.084 250.505 283.543 249.805L283.543 249.281C277.905 248.581 273.251 243.771 273.251 235.551L273.251 229.429C273.251 224.094 269.94 221.558 262.423 221.821L262.423 210.889L268.06 210.889Z" fill="#262626"/>
<rect y="100.282" width="99" height="99" fill="#FFFBFA"/>
<path d="M30.002 189.382C18.5471 189.382 12.0142 182.474 12.0142 172.854V165.595C12.0142 158.337 9.50843 155.888 3.95996 155.888V145.569C9.50843 145.656 12.0142 143.208 12.0142 135.862V128.603C12.0142 118.984 18.5471 112.162 30.002 112.162H35.64V123.444C28.1227 123.181 24.8115 125.455 24.8115 130.702V136.736C24.8115 144.957 19.9789 149.767 14.52 150.466V150.991C20.1579 151.691 24.8115 156.5 24.8115 164.721V170.843C24.8115 176.177 28.1227 178.713 35.64 178.451V189.382H30.002Z" fill="#262626"/>
<path d="M68.998 112.163C80.4529 112.163 86.9858 119.071 86.9858 128.691L86.9858 135.949C86.9858 143.208 89.4916 145.657 95.04 145.657L95.04 155.976C89.4916 155.889 86.9858 158.337 86.9858 165.683L86.9858 172.942C86.9858 182.561 80.4529 189.383 68.998 189.383L63.36 189.383L63.36 178.101C70.8773 178.364 74.1885 176.09 74.1885 170.843L74.1885 164.809C74.1885 156.588 79.0211 151.778 84.48 151.079L84.48 150.554C78.8421 149.854 74.1885 145.044 74.1885 136.824L74.1885 130.702C74.1885 125.368 70.8773 122.832 63.36 123.094L63.36 112.163L68.998 112.163Z" fill="#262626"/>
<rect x="99" y="199.282" width="99" height="99" fill="#4E4E4E"/>
<rect x="198" y="100" width="99" height="99" rx="49.5" fill="#EEFF00"/>
<path d="M269.081 176.543H226V142.233L232.268 139.845H262.479L269.081 142.233V176.543Z" fill="#262626"/>
<path d="M235.61 136.501V130.396C235.61 123.777 240.959 118.457 247.519 118.457C254.08 118.457 259.428 123.819 259.428 130.396V140.659" stroke="#262626" stroke-width="8" stroke-miterlimit="10"/>
<path d="M247.519 165.693C251.835 165.693 255.333 162.186 255.333 157.859C255.333 153.533 251.835 150.026 247.519 150.026C243.204 150.026 239.705 153.533 239.705 157.859C239.705 162.186 243.204 165.693 247.519 165.693Z" fill="#EEFF00"/>
</svg>
